<?xml version="1.0" encoding="UTF-8"?>
<svg width="68px" height="68px" viewBox="0 0 68 68" version="1.1" xmlns="http://www.w3.org/2000/svg" xmlns:xlink="http://www.w3.org/1999/xlink">
    <title>图星人-logo</title>
    <g id="登录" stroke="none" stroke-width="1" fill="none" fill-rule="evenodd">
        <g id="图星人-logo">
            <rect id="矩形" x="0" y="0" width="68" height="68"></rect>
            <g transform="translate(8.000000, 0.000000)" fill-rule="nonzero">
                <path d="M8.96835615,18.7108975 L9.02867617,18.7788975 L9.08890952,18.8355641 C9.19030955,18.9281487 9.31129626,18.9965846 9.44276963,19.0357282 C9.6559697,19.102159 9.88554977,19.0916975 10.0919032,19.0061744 C10.2981699,18.9206513 10.4681233,18.7653846 10.5722967,18.5673128 C10.5722967,18.5484821 10.5722967,18.5258154 10.6024567,18.5031487 C10.6201367,18.4694975 10.6340033,18.4340154 10.6438833,18.3973128 C11.0429835,17.3509846 11.792217,15.3754103 12.3005172,13.9966667 C12.4248839,13.6921487 12.4887573,13.3662718 12.4887573,13.0371693 C12.4858106,12.3839334 12.2250305,11.7585077 11.7635304,11.297677 C11.3021169,10.836759 10.67751,10.5780959 10.0263831,10.5780959 L3.62572714,10.5780959 C3.42498108,10.5777487 3.22856835,10.6365949 3.06091163,10.7474 C2.89324624,10.858118 2.76172953,11.0159129 2.68269818,11.2010821 C2.60366682,11.3861641 2.58062214,11.5905129 2.61640682,11.7886718 C2.65220017,11.986918 2.7452542,12.1701693 2.88399891,12.3156718 L8.9081228,18.6542308 C8.9260628,18.6752411 8.94634281,18.6942462 8.96835615,18.7108975 L8.96835615,18.7108975 Z" id="路径" fill="#FF8279"></path>
                <path d="M48.818222,6.30588414 L48.7202886,6.21900106 L42.1427199,0.484857472 L42.1239132,0.465970908 C42.0598665,0.416863574 41.9996332,0.367757113 41.9393998,0.326205626 L41.7473464,0.209105267 L41.6909264,0.178885369 C41.6191664,0.138494241 41.5434197,0.105584857 41.4649864,0.0806724464 C41.0885929,-0.0444265433 40.6790928,-0.0234379074 40.317346,0.139496805 C39.9555992,0.30243178 39.6678658,0.595478651 39.5109124,0.960813882 L39.4882924,1.08168824 C39.4882924,1.08168824 39.4882924,1.08168824 39.4882924,1.10435491 C39.0214189,2.39624157 38.2948054,4.3831667 37.6509585,6.09811798 C37.3874051,6.79694875 37.1426583,7.45044619 36.9317983,7.98683542 C36.7360182,8.44012516 36.5892048,8.81035901 36.4762781,9.06718977 C36.4114514,9.22228208 36.3333647,9.37144619 36.242798,9.51293849 L36.156218,9.66776926 C36.0326313,9.90873336 35.8538379,10.1168308 35.6345712,10.2750616 C35.4153911,10.4332923 35.161891,10.5372103 34.894871,10.5781846 C34.7772643,10.5914359 34.6586175,10.5914359 34.5410108,10.5781846 L27.1990419,10.5781846 C26.8763818,10.5940513 26.5590083,10.6669334 26.2615682,10.7934308 L26.1560949,10.8387641 C26.0956882,10.8650052 26.0377082,10.8966513 25.9829348,10.9332667 C25.9113481,10.9747641 25.8435748,11.0200975 25.7758014,11.0654308 L25.7306481,11.0956821 C25.3720213,11.3539077 25.0802145,11.694518 24.8797545,12.0890923 L24.8534078,12.1344257 L24.7893611,12.2515949 C24.7533078,12.3211641 24.7218478,12.3930872 24.6952411,12.4668411 C24.6764344,12.5160103 24.6576277,12.5688411 24.6425477,12.621759 C24.6274677,12.6745898 24.6162011,12.7048411 24.6049344,12.7464257 L21.7923402,21.9482205 C21.7928602,21.9570257 21.7928602,21.9658308 21.7923402,21.9746359 C20.6628132,25.7785385 19.6312195,29.276441 19.2772727,30.2850205 L19.2772727,30.3114359 C19.2726794,30.3308769 19.2664394,30.3498821 19.258466,30.3681026 C18.8819859,31.4144308 18.2871057,31.9093487 17.8013389,32.1132616 L17.6922256,32.1548462 L17.5867522,32.1888462 L17.4700122,32.2152616 L17.4399388,32.2152616 C17.3487654,32.2277282 17.2562921,32.2277282 17.1650321,32.2152616 L14.1869045,32.1661795 L9.53697633,32.1095128 L9.40142962,32.1095128 C9.16820954,32.1204975 8.94348281,32.2007898 8.75584942,32.3401898 C8.56813802,32.4795026 8.42595265,32.6716462 8.34729395,32.8922103 C8.26863526,33.1127744 8.25704793,33.3518205 8.31401394,33.5790103 C8.37097996,33.8062 8.49392533,34.0112462 8.66727605,34.1682564 L8.73877608,34.2286718 L13.1326908,38.0438205 C13.7953443,38.5915692 14.3600645,39.0524 14.7140113,39.3168154 C15.2094848,39.7201949 15.798905,39.9905385 16.4271518,40.1025641 L25.0529145,39.5926513 L25.1734679,39.5926513 C25.5760347,39.5903846 25.9759148,39.5266564 26.3594149,39.4037333 C26.8691018,39.2587539 27.3411753,39.0041898 27.742962,38.6578257 C28.1447488,38.3114616 28.4666289,37.8815795 28.6862423,37.3979077 L28.7164023,37.2959077 C28.8607024,36.980841 28.9632291,36.6480769 29.0213824,36.3062462 C29.9588561,33.3409231 31.5590699,28.2981128 32.6282769,24.9437077 C32.9219903,24.0257949 33.1780037,23.2325487 33.3813238,22.6470513 L33.6674972,21.7631385 C33.7590173,21.4408359 33.915104,21.1405898 34.1261374,20.8808821 C34.3371708,20.6210872 34.5987309,20.4071487 34.894871,20.2521436 L34.894871,20.2521436 C35.2038377,20.1026308 35.5420978,20.0239077 35.8851246,20.0217282 L40.4032327,20.0217282 C41.9094998,20.020159 43.377547,19.5458154 44.6016273,18.6652154 C45.8257077,17.7846154 46.744548,16.5418718 47.2293615,15.1110821 L47.3837149,14.604918 C47.3837149,14.604918 47.3837149,14.604918 47.3837149,14.5822513 L49.3152555,8.22103439 C49.3210622,8.19784465 49.3286022,8.17511695 49.3377888,8.15304311 C49.4235888,7.82666054 49.4207288,7.48317337 49.3292955,7.15831644 C49.2379488,6.8334508 49.0614087,6.53909798 48.818222,6.30588414 L48.818222,6.30588414 Z" id="路径" fill="#FF8279"></path>
                <path d="M11.4140903,65.6140718 L12.9489574,65.6140718 C13.1723841,65.6140718 13.2840975,65.4977744 13.2840975,65.2653538 L13.2840975,60.2548 L13.0195041,60.6585282 C12.5961373,61.3192615 12.0139104,61.5578718 11.2729969,61.374359 C10.5202966,61.2152564 9.4441563,60.7931333 8.04457586,60.1079897 L7.16249092,60.5484205 C8.62086604,60.8910359 9.52059632,61.148041 9.86162976,61.3192615 C10.5790567,61.6129692 10.75551,62.0411949 10.3909033,62.6040256 C10.0380832,63.1546513 9.51470299,63.2708615 8.82076277,62.9527436 C8.16218256,62.5979231 7.3153883,62.3349026 6.28041464,62.1635949 C5.55122708,61.9555846 5.35128701,61.6190718 5.68059445,61.1541436 L4.32218936,61.5762667 C3.59301046,61.7964821 3.05787829,61.5517692 2.71681019,60.8421282 L2.54039146,60.4750154 L2.54039146,65.2653538 C2.54039146,65.4977744 2.65212217,65.6140718 2.87558357,65.6140718 L9.73812972,65.6140718 C7.66821707,64.990041 5.99226521,64.6046205 4.71030881,64.4577231 C3.95759991,64.3599077 3.78118119,64.0172923 4.18106131,63.4299641 C4.58093277,62.8426359 5.15723162,62.5979231 5.90994052,62.6958256 C7.8505118,62.8916308 9.60882302,63.2708615 11.1847702,63.8337795 C11.9139837,64.0539949 12.0786505,64.5006154 11.6787703,65.1735538 L11.4140903,65.6140718 Z M5.94522253,53.6841692 L2.54039146,53.6841692 L2.54039146,56.7125231 C3.9281939,55.8927744 5.06313759,54.8833231 5.94522253,53.6841692 Z M9.22653623,56.8961231 L6.68617077,56.8961231 C7.14484558,57.2264462 7.55648637,57.4833641 7.92108449,57.6669641 C8.39151997,57.4222513 8.8266561,57.1652462 9.22653623,56.8961231 Z M2.54039146,57.0796359 L2.54039146,59.5573641 C3.51656177,59.361559 4.57505677,59.0618359 5.71587646,58.6580205 L4.81615485,57.9238821 C4.27514668,58.3154051 3.7282625,58.2297949 3.175485,57.6669641 C2.68152818,57.1163385 2.46982744,56.9205333 2.54039146,57.0796359 Z M13.2840975,59.5022667 L13.2840975,53.6841692 L7.23305494,53.7576615 C7.95048183,54.0145795 8.13277655,54.3938974 7.77994778,54.8955282 L11.7669104,54.7854205 L12.2609105,55.0974359 C12.9194907,55.488959 13.0253974,56.0089846 12.5784573,56.6575128 C12.3197572,57.1346462 11.5669703,57.8137744 10.3203566,58.6947231 C11.2494235,59.0251333 12.2374238,59.2942564 13.2840975,59.5022667 Z M0,51.206441 L15.9656517,51.206441 L15.9656517,66.8070359 C15.9656517,67.6023744 15.5834516,68 14.8189647,68 L1.14670436,68 C0.382234787,68 0,67.6023744 0,66.8070359 L0,51.206441 Z" id="形状" fill="#777777"></path>
                <path d="M20.8876266,62.1268923 C20.7465332,62.2981128 20.7876999,62.3838103 21.0111266,62.3838103 L24.7158678,62.3838103 L24.7158678,61.5945744 L21.31108,61.5945744 L20.8876266,62.1268923 Z M22.2813137,55.5929641 L22.2813137,56.1986872 L29.0557025,56.1986872 C29.2792159,56.1986872 29.3909292,56.0823897 29.3909292,55.8499692 L29.3909292,55.5929641 L22.2813137,55.5929641 Z M22.2813137,53.1519385 L22.2813137,53.7392667 L29.3909292,53.7392667 L29.3909292,53.1519385 L22.2813137,53.1519385 Z M27.3797419,65.246959 L33.854264,65.246959 L33.854264,66.3298154 C33.854264,67.1251538 33.4719772,67.5227795 32.7075769,67.5227795 L19.2646194,67.5227795 C18.5001325,67.5227795 18.1179324,67.1251538 18.1179324,66.3298154 L18.1179324,65.246959 L24.7158678,65.246959 L24.7158678,64.4210205 L21.5051268,64.4210205 C20.7406398,64.4210205 20.3584397,64.0233949 20.3584397,63.2280564 L20.3407597,62.7508359 C19.9644529,63.1301538 19.4174994,63.0445436 18.7000725,62.493918 C17.9944323,61.9432923 17.9356723,61.4110615 18.5237058,60.8971385 C19.0999527,60.5056154 19.7291529,59.6062718 20.4113064,58.1991949 C19.9761529,58.1991949 19.7586195,57.9727897 19.7586195,57.5200667 L19.7586195,51.1514308 L32.0548034,51.1514308 L32.0548034,57.0062308 C32.0548034,57.8015692 31.6725166,58.1991949 30.9081164,58.1991949 L21.5227201,58.1991949 L22.2813137,58.4378051 C22.7988005,58.5846154 22.9340872,58.9088359 22.6870871,59.4105539 L24.7158678,59.4105539 L24.7158678,58.4928154 L27.3797419,58.4928154 L27.3797419,59.4105539 L32.7075769,59.4105539 L32.7075769,60.4016103 C32.7075769,61.1969487 32.3252901,61.5945744 31.5608032,61.5945744 L27.3797419,61.5945744 L27.3797419,62.3838103 L31.87835,62.3838103 L31.87835,63.2280564 C31.87835,64.0233949 31.4961499,64.4210205 30.731663,64.4210205 L27.3797419,64.4210205 L27.3797419,65.246959 Z" id="形状" fill="#777777"></path>
                <path d="M42.1987066,50.5641026 L45.1625342,50.5641026 C45.1389608,51.6653539 45.0919008,52.6870103 45.0213541,53.629159 C45.2918409,56.1986872 45.9798878,58.4806103 47.0854081,60.4750154 C47.4735882,61.1724513 47.9087417,61.8148769 48.3909552,62.402118 C48.873082,62.9894462 49.4670955,63.5645692 50.1727358,64.1274 C50.8901626,64.6780256 51.3135294,64.990041 51.4429228,65.0634462 C52.148563,65.3815641 52.1838364,65.9260872 51.5487428,66.6969282 C50.925436,67.4677692 50.2903425,67.6512821 49.6434623,67.2474667 C47.1618481,66.0851026 45.2330809,63.5951692 43.8569871,59.7775795 C42.6691334,63.3504564 40.8991395,65.8525949 38.5469188,67.2841692 C37.9353119,67.7491846 37.2708384,67.6145795 36.5534115,66.880441 C35.8359846,66.1585077 35.7830312,65.5650769 36.3946381,65.1001487 L37.9118252,63.9621949 C38.6292521,63.264759 39.2172856,62.5979231 39.6759258,61.9616872 C40.1346526,61.313159 40.5286394,60.542318 40.8579728,59.6491641 C41.1872196,58.743718 41.4283263,58.0033897 41.5812931,57.4283539 C41.7458731,56.8410256 41.8752665,56.0762872 41.9693865,55.1341385 C42.0752065,54.1797846 42.1340532,53.5190513 42.1457532,53.1519385 C42.1811132,52.0507744 42.1987066,51.1881333 42.1987066,50.5641026 Z" id="路径" fill="#777777"></path>
            </g>
        </g>
    </g>
</svg>