<svg id="ETS_TOEFL" data-name="ETS TOEFL" xmlns="http://www.w3.org/2000/svg" viewBox="0 0 137.08 39.13"><path d="M120.81,100.37l-.07,0A40,40,0,0,1,104.28,108c-9.73,2.12-18.79.86-23.65-3.31a10,10,0,0,1-3.64-7c-.59-7.08,4.72-14.39,14.19-19.57l.1-.06-.11-.27-.09,0c-11.14,4.48-19,12.84-18.35,20.78a12,12,0,0,0,4.19,8.3c5.17,4.5,14.33,5.9,24.49,3.73a40,40,0,0,0,19.52-10l.09-.09Z" transform="translate(-72.69 -72.55)" fill="#003082"/><path d="M128.2,81.16c-1.93-4.31-6.17-7.24-11.95-8.25-9.33-1.64-20.53,2.38-26.14,8.88l-.07.09.17.24L90.3,82a31.51,31.51,0,0,1,14.76-6.31c8.19-1.25,15.07.81,18.38,5.51s2.31,13.37-1.92,18.47l-.08.1.21.24.09-.07C128.18,93.85,131.28,88,128.2,81.16Z" transform="translate(-72.69 -72.55)" fill="#003082"/><path d="M93.81,93.58H87.63L87,97.12h6.91L93.33,100H83l2.9-15.42H95.8l-.57,2.91H88.78l-.6,3.15h6.18Z" transform="translate(-72.69 -72.55)" fill="#003082"/><path d="M100.09,87.54H96.3l.58-2.93H110a4.31,4.31,0,0,0-2.14,1.3,3.31,3.31,0,0,0-.88,1.63h-3.45L101.19,100H97.75Z" transform="translate(-72.69 -72.55)" fill="#003082"/><path d="M107.08,96.26a8.41,8.41,0,0,0,4.14,1.12c1.26,0,2.52-.53,2.52-1.74,0-.83-.71-1.37-2.27-2.06-1.78-.78-3.63-2-3.63-4.21,0-3.18,3-5,6.4-5a8.63,8.63,0,0,1,4.1.84L117.22,88a7.18,7.18,0,0,0-3.27-.76c-1.65,0-2.45.76-2.45,1.49,0,1,1.16,1.51,2.49,2.13,2.08.91,3.45,2.15,3.45,4.19,0,3.52-3.08,5.23-6.67,5.23A8.93,8.93,0,0,1,105.85,99Z" transform="translate(-72.69 -72.55)" fill="#003082"/><path d="M127.39,103.66a2.08,2.08,0,0,1-1.5.62,2,2,0,0,1-1.5-.62,2.08,2.08,0,0,1-.62-1.5,2.12,2.12,0,0,1,2.12-2.12,2.08,2.08,0,0,1,1.5.62,2,2,0,0,1,.62,1.5A2.08,2.08,0,0,1,127.39,103.66Zm-2.79-2.79a1.83,1.83,0,0,0,1.29,3.12,1.81,1.81,0,0,0,1.82-1.83,1.83,1.83,0,0,0-1.82-1.83A1.73,1.73,0,0,0,124.6,100.87Zm1.25.11a1.87,1.87,0,0,1,.63.09.58.58,0,0,1,.36.59.49.49,0,0,1-.23.46.85.85,0,0,1-.33.11.6.6,0,0,1,.4.23.65.65,0,0,1,.12.36V103a1,1,0,0,0,0,.17.29.29,0,0,0,0,.12v0h-.38V103a.57.57,0,0,0-.22-.53,1,1,0,0,0-.45-.07h-.33v.91H125V101Zm.44.37a1.2,1.2,0,0,0-.5-.08h-.35v.84h.37a1.18,1.18,0,0,0,.39,0,.37.37,0,0,0,.24-.37A.36.36,0,0,0,126.29,101.35Z" transform="translate(-72.69 -72.55)" fill="#003082"/><path d="M143.14,86h-5l.53-2.73h13.14L151.3,86h-5l-2.89,15.3h-3.12Z" transform="translate(-72.69 -72.55)" fill="#003082"/><path d="M157.4,101.62c-4.68,0-7.09-3.43-7.09-7.44a12.37,12.37,0,0,1,3.37-8.67A9.16,9.16,0,0,1,160,83c4.79,0,7.06,3.37,7.06,7.46a12.37,12.37,0,0,1-3.23,8.59,9,9,0,0,1-6.42,2.57Zm.46-2.62a4.92,4.92,0,0,0,3.5-1.53c1.55-1.55,2.43-4.63,2.43-6.9s-.82-4.95-4.14-4.95a5.06,5.06,0,0,0-3.59,1.55A10.63,10.63,0,0,0,153.6,94c0,2.73,1.21,5,4.23,5Z" transform="translate(-72.69 -72.55)" fill="#003082"/><path d="M178.8,93.3h-6.47l-1,5.37h7.28l-.51,2.65H167.67l3.43-18h10l-.51,2.65h-6.87l-.91,4.74h6.5Z" transform="translate(-72.69 -72.55)" fill="#003082"/><path d="M184,83.29h9.92l-.5,2.65h-6.8l-1,5.08h6.32l-.51,2.63h-6.29l-1.44,7.67h-3.13Z" transform="translate(-72.69 -72.55)" fill="#003082"/><path d="M196.7,83.29h3.1l-2.89,15.3H204l-.51,2.73H193.27Z" transform="translate(-72.69 -72.55)" fill="#003082"/><path d="M209.15,100.62a2.13,2.13,0,0,1-3.64-1.51,2,2,0,0,1,.63-1.5,2,2,0,0,1,1.5-.62,2,2,0,0,1,1.51.62,2,2,0,0,1,.63,1.5A2,2,0,0,1,209.15,100.62Zm-2.8-2.8a1.74,1.74,0,0,0-.54,1.29,1.8,1.8,0,0,0,.53,1.31,1.83,1.83,0,0,0,2.6,0,1.8,1.8,0,0,0,.53-1.31,1.83,1.83,0,0,0-1.83-1.83A1.74,1.74,0,0,0,206.35,97.82Zm1.25.12a2,2,0,0,1,.64.08.58.58,0,0,1,.36.59.48.48,0,0,1-.23.46.85.85,0,0,1-.33.12.56.56,0,0,1,.4.23.65.65,0,0,1,.12.36V100s0,.11,0,.17a.31.31,0,0,0,0,.13v0h-.38V100a.6.6,0,0,0-.22-.54,1,1,0,0,0-.46-.07h-.33v.92h-.41V97.94Zm.45.37a1.09,1.09,0,0,0-.5-.09h-.36v.84h.38a1,1,0,0,0,.39,0,.42.42,0,0,0,.09-.7Z" transform="translate(-72.69 -72.55)" fill="#003082"/></svg>